<svg width="100" height="100" viewBox="0 0 100 100" xmlns="http://www.w3.org/2000/svg">
  <path d="M50.1,10.5c-1.2,0.5-2.2,1.4-2.9,2.5c-0.7,1.1-1.1,2.4-1.2,3.7c-0.1,1.3,0.2,2.6,0.8,3.8c0.6,1.2,1.5,2.1,2.6,2.8
    c1.1,0.7,2.3,1,3.6,1c1.3,0,2.5-0.4,3.6-1.1c1.1-0.7,1.9-1.7,2.5-2.9c0.6-1.2,0.8-2.5,0.6-3.8c-0.1-1.3-0.6-2.6-1.4-3.6
    c-0.8-1-1.8-1.8-3-2.3c-1.2-0.5-2.5-0.6-3.8-0.4C50.9,10.2,50.5,10.3,50.1,10.5z" fill="#362712"/>
  <path d="M70.5,36.2c-0.9-0.9-2.1-1.5-3.3-1.8c-1.3-0.3-2.6-0.2-3.8,0.3c-1.2,0.5-2.3,1.3-3,2.4c-0.7,1.1-1.2,2.3-1.2,3.6
    c0,1.3,0.4,2.6,1.1,3.7c0.7,1.1,1.7,2,2.9,2.5c1.2,0.5,2.5,0.7,3.8,0.5c1.3-0.2,2.5-0.7,3.5-1.6c1-0.8,1.7-1.9,2.1-3.1
    c0.4-1.2,0.5-2.5,0.2-3.8c-0.3-1.2-0.9-2.4-1.8-3.2C70.8,36.5,70.7,36.4,70.5,36.2z" fill="#362712"/>
  <path d="M32.1,59.5c-1.1-0.6-2.3-0.9-3.6-0.9c-1.3,0-2.5,0.4-3.6,1.1c-1.1,0.7-2,1.6-2.6,2.8c-0.6,1.2-0.9,2.5-0.9,3.8
    c0,1.3,0.4,2.6,1,3.7c0.6,1.1,1.5,2.1,2.7,2.7c1.1,0.6,2.4,1,3.7,0.9c1.3-0.1,2.5-0.5,3.6-1.2c1.1-0.7,1.9-1.7,2.4-2.9
    c0.5-1.2,0.8-2.5,0.6-3.8c-0.1-1.3-0.6-2.5-1.3-3.6C33.6,60.9,32.9,60.1,32.1,59.5z" fill="#362712"/>
  <path d="M66.4,68.1c-1.2-0.5-2.5-0.7-3.8-0.6c-1.3,0.1-2.5,0.6-3.6,1.3c-1,0.8-1.8,1.8-2.3,3c-0.5,1.2-0.7,2.5-0.5,3.8
    c0.2,1.3,0.7,2.5,1.5,3.5c0.8,1,1.9,1.7,3.1,2.1c1.2,0.4,2.5,0.5,3.8,0.3c1.3-0.2,2.5-0.8,3.4-1.6c0.9-0.9,1.6-2,1.9-3.2
    c0.3-1.2,0.3-2.5-0.1-3.8c-0.4-1.2-1.1-2.3-2.1-3.2C67.3,68.8,66.9,68.4,66.4,68.1z" fill="#362712"/>
  <path d="M80.8,50c-9,8.3-19.7,14.7-31.3,18.8c-3.7,1.3-7.6,2.3-11.4,2.9c-1.3,0.2-2.7,0.2-4,0.1c-1.4-0.1-2.7-0.4-3.9-1.1
    c-1.4-0.7-2.7-1.7-3.7-3c-1.1-1.3-1.8-2.8-2.1-4.5c-0.4-1.6-0.4-3.3,0-4.9c0.4-1.6,1.1-3.1,2.1-4.4c0.9-1.2,2.1-2.2,3.3-2.9
    c1.3-0.7,2.8-1.1,4.3-1.2c3.9-0.2,7.8,0.3,11.6,1.4c1.9,0.6,3.8,1.3,5.6,2.1c0.3-0.1,0.5-0.2,0.8-0.3c3.1-1.4,6.1-3.1,8.9-5
    c-2.9-1-5.8-1.9-8.8-2.6c-5.8-1.3-11.7-1.7-17.6-1.2c-1.5,0.1-2.9,0.3-4.4,0.6c-0.7,0.1-1.5,0.4-2.2,0.6c-0.7,0.2-1.3,0.5-2,0.9
    c-2.5,1.3-4.5,3.4-5.8,6c-1.3,2.6-1.7,5.5-1.3,8.3c0.4,2.8,1.7,5.5,3.6,7.5c1.9,2.1,4.4,3.6,7.2,4.3c2.8,0.7,5.7,0.7,8.5-0.1
    c13.8-3.7,26.5-10.7,37.1-20.4C81.2,50.3,80.9,49.9,80.8,50z" fill="#362712"/>
</svg> 